<svg width="49" height="49" viewBox="0 0 49 49" fill="none" xmlns="http://www.w3.org/2000/svg">
<g clip-path="url(#clip0_691_1397)">
<path d="M10.75 14.4453H12.75C13.8109 14.4453 14.8283 14.0239 15.5784 13.2737C16.3286 12.5236 16.75 11.5062 16.75 10.4453C16.75 9.91488 16.9607 9.40617 17.3358 9.0311C17.7109 8.65603 18.2196 8.44531 18.75 8.44531H30.75C31.2804 8.44531 31.7891 8.65603 32.1642 9.0311C32.5393 9.40617 32.75 9.91488 32.75 10.4453C32.75 11.5062 33.1714 12.5236 33.9216 13.2737C34.6717 14.0239 35.6891 14.4453 36.75 14.4453H38.75C39.8109 14.4453 40.8283 14.8667 41.5784 15.6169C42.3286 16.367 42.75 17.3844 42.75 18.4453V36.4453C42.75 37.5062 42.3286 38.5236 41.5784 39.2737C40.8283 40.0239 39.8109 40.4453 38.75 40.4453H10.75C9.68913 40.4453 8.67172 40.0239 7.92157 39.2737C7.17143 38.5236 6.75 37.5062 6.75 36.4453V18.4453C6.75 17.3844 7.17143 16.367 7.92157 15.6169C8.67172 14.8667 9.68913 14.4453 10.75 14.4453" stroke="black" stroke-width="2" stroke-linecap="round" stroke-linejoin="round"/>
<path d="M24.75 32.4453C28.0637 32.4453 30.75 29.759 30.75 26.4453C30.75 23.1316 28.0637 20.4453 24.75 20.4453C21.4363 20.4453 18.75 23.1316 18.75 26.4453C18.75 29.759 21.4363 32.4453 24.75 32.4453Z" stroke="black" stroke-width="2" stroke-linecap="round" stroke-linejoin="round"/>
</g>
<defs>
<clipPath id="clip0_691_1397">
<rect width="48" height="48" fill="white" transform="translate(0.75 0.445312)"/>
</clipPath>
</defs>
</svg>
