<svg width="24" height="24" viewBox="0 0 24 24" fill="none" xmlns="http://www.w3.org/2000/svg">
    <path
        d="M21.6368 11.1849L20.6068 9.75494C20.3763 9.43115 20.0719 9.167 19.7188 8.98439C19.3658 8.80178 18.9743 8.70598 18.5768 8.70494H14.1968V6.56494C14.1968 5.9019 13.9334 5.26602 13.4646 4.79717C12.9957 4.32833 12.3598 4.06494 11.6968 4.06494H4.72681C4.06433 4.06679 3.42952 4.33077 2.96108 4.79921C2.49264 5.26766 2.22865 5.90247 2.22681 6.56494V16.5049C2.22681 16.9028 2.38484 17.2843 2.66615 17.5656C2.94745 17.8469 3.32898 18.0049 3.72681 18.0049H4.94681C5.02232 18.54 5.28851 19.0297 5.69641 19.3841C6.10431 19.7385 6.62647 19.9336 7.16681 19.9336C7.70714 19.9336 8.2293 19.7385 8.6372 19.3841C9.0451 19.0297 9.3113 18.54 9.38681 18.0049H14.9468C15.0223 18.54 15.2885 19.0297 15.6964 19.3841C16.1043 19.7385 16.6265 19.9336 17.1668 19.9336C17.7071 19.9336 18.2293 19.7385 18.6372 19.3841C19.0451 19.0297 19.3113 18.54 19.3868 18.0049H20.6068C21.0046 18.0049 21.3862 17.8469 21.6675 17.5656C21.9488 17.2843 22.1068 16.9028 22.1068 16.5049V12.6349C22.1044 12.1146 21.9401 11.6078 21.6368 11.1849ZM7.16681 18.9349C6.91958 18.9349 6.67791 18.8616 6.47234 18.7243C6.26678 18.5869 6.10657 18.3917 6.01196 18.1633C5.91735 17.9349 5.89259 17.6836 5.94082 17.4411C5.98906 17.1986 6.10811 16.9759 6.28292 16.8011C6.45774 16.6262 6.68047 16.5072 6.92294 16.459C7.16542 16.4107 7.41675 16.4355 7.64516 16.5301C7.87357 16.6247 8.06879 16.7849 8.20614 16.9905C8.3435 17.196 8.41681 17.4377 8.41681 17.6849C8.41681 18.0165 8.28511 18.3344 8.05069 18.5688C7.81627 18.8032 7.49833 18.9349 7.16681 18.9349ZM13.1968 17.0049H9.31681C9.1712 16.5491 8.88447 16.1513 8.49801 15.869C8.11155 15.5867 7.64537 15.4346 7.16681 15.4346C6.68824 15.4346 6.22207 15.5867 5.83561 15.869C5.44915 16.1513 5.16241 16.5491 5.01681 17.0049H3.72681C3.5942 17.0049 3.46702 16.9523 3.37325 16.8585C3.27949 16.7647 3.22681 16.6375 3.22681 16.5049V6.56494C3.22681 6.16712 3.38484 5.78559 3.66615 5.50428C3.94745 5.22298 4.32898 5.06494 4.72681 5.06494H11.6968C12.0946 5.06494 12.4762 5.22298 12.7575 5.50428C13.0388 5.78559 13.1968 6.16712 13.1968 6.56494V17.0049ZM17.1668 18.9349C16.9196 18.9349 16.6779 18.8616 16.4723 18.7243C16.2668 18.5869 16.1066 18.3917 16.012 18.1633C15.9173 17.9349 15.8926 17.6836 15.9408 17.4411C15.9891 17.1986 16.1081 16.9759 16.2829 16.8011C16.4577 16.6262 16.6805 16.5072 16.9229 16.459C17.1654 16.4107 17.4168 16.4355 17.6452 16.5301C17.8736 16.6247 18.0688 16.7849 18.2061 16.9905C18.3435 17.196 18.4168 17.4377 18.4168 17.6849C18.4168 18.0165 18.2851 18.3344 18.0507 18.5688C17.8163 18.8032 17.4983 18.9349 17.1668 18.9349ZM21.1068 16.5049C21.1068 16.6375 21.0541 16.7647 20.9604 16.8585C20.8666 16.9523 20.7394 17.0049 20.6068 17.0049H19.3168C19.1712 16.5491 18.8845 16.1513 18.498 15.869C18.1115 15.5867 17.6454 15.4346 17.1668 15.4346C16.6882 15.4346 16.2221 15.5867 15.8356 15.869C15.4491 16.1513 15.1624 16.5491 15.0168 17.0049H14.1968V9.70494H18.5768C18.8154 9.70654 19.0502 9.76443 19.2622 9.8739C19.4742 9.98337 19.6574 10.1413 19.7968 10.3349L20.8268 11.7649C21.0068 12.0196 21.1045 12.3232 21.1068 12.6349V16.5049Z"
        fill="#797979" />
    <path
        d="M18.1958 12.2051H16.1958C16.0632 12.2051 15.936 12.1524 15.8422 12.0586C15.7485 11.9649 15.6958 11.8377 15.6958 11.7051C15.6958 11.5725 15.7485 11.4453 15.8422 11.3515C15.936 11.2578 16.0632 11.2051 16.1958 11.2051H18.1958C18.3284 11.2051 18.4556 11.2578 18.5494 11.3515C18.6431 11.4453 18.6958 11.5725 18.6958 11.7051C18.6958 11.8377 18.6431 11.9649 18.5494 12.0586C18.4556 12.1524 18.3284 12.2051 18.1958 12.2051Z"
        fill="#797979" />
</svg>