<svg width="24" height="24" viewBox="0 0 24 24" fill="none" xmlns="http://www.w3.org/2000/svg">
    <path fill-rule="evenodd" clip-rule="evenodd"
        d="M7.93526 1.25H17.0647C17.6346 1.24998 18.1186 1.24997 18.5185 1.29132C18.9443 1.33534 19.3378 1.43094 19.7096 1.66071C20.0814 1.89048 20.3429 2.19971 20.5727 2.56088C20.7885 2.9001 21.0049 3.33297 21.2598 3.8428L21.2763 3.87574C21.286 3.89518 21.2949 3.91504 21.3029 3.93526L22.7065 7.4834C22.8735 7.90559 23.0586 8.4323 23.1127 8.97128C23.1681 9.52258 23.0921 10.1541 22.6601 10.7019C22.3068 11.15 21.8155 11.4863 21.25 11.6463V21.25H22.5C22.9142 21.25 23.25 21.5858 23.25 22C23.25 22.4142 22.9142 22.75 22.5 22.75H2.5C2.08579 22.75 1.75 22.4142 1.75 22C1.75 21.5858 2.08579 21.25 2.5 21.25H3.75V11.6464C3.18446 11.4863 2.69312 11.15 2.33975 10.7019C1.90779 10.1541 1.83182 9.52257 1.88718 8.97127C1.9413 8.43229 2.12639 7.90559 2.2934 7.4834L3.69701 3.93526C3.70501 3.91504 3.71388 3.89518 3.72361 3.87574L3.7401 3.84275C3.99498 3.33295 4.21139 2.90009 4.42723 2.56088C4.65704 2.19971 4.91853 1.89048 5.29031 1.66071C5.66208 1.43094 6.05561 1.33534 6.48142 1.29132C6.88134 1.24997 7.36529 1.24998 7.93526 1.25ZM18.4999 10.8875C18.8359 11.2433 19.2658 11.5096 19.75 11.6465V21.25H15.75V18.4678C15.75 18.028 15.75 17.6486 15.7218 17.3374C15.692 17.0082 15.6259 16.6822 15.4486 16.375C15.2511 16.033 14.967 15.7489 14.625 15.5514C14.3178 15.3741 13.9918 15.308 13.6627 15.2782C13.3514 15.25 12.972 15.25 12.5322 15.25H12.4678C12.028 15.25 11.6486 15.25 11.3373 15.2782C11.0082 15.308 10.6822 15.3741 10.375 15.5514C10.033 15.7489 9.74892 16.033 9.55144 16.375C9.37407 16.6822 9.30802 17.0082 9.27818 17.3374C9.24997 17.6486 9.24998 18.028 9.25 18.4677V21.25H5.25V11.6465C5.73413 11.5095 6.16398 11.2433 6.49992 10.8875C7.0013 11.4186 7.7119 11.75 8.49991 11.75C9.28793 11.75 9.99853 11.4186 10.4999 10.8875C11.0013 11.4186 11.7119 11.75 12.4999 11.75C13.2879 11.75 13.9985 11.4186 14.4999 10.8875C15.0013 11.4186 15.7119 11.75 16.4999 11.75C17.2879 11.75 17.9985 11.4186 18.4999 10.8875ZM10.75 21.25H14.25V18.5C14.25 18.0189 14.2493 17.7082 14.2279 17.4727C14.2075 17.2476 14.1731 17.1659 14.1495 17.125C14.0837 17.011 13.989 16.9163 13.875 16.8505C13.8341 16.8269 13.7524 16.7925 13.5273 16.7721C13.2918 16.7507 12.9811 16.75 12.5 16.75C12.0189 16.75 11.7082 16.7507 11.4727 16.7721C11.2476 16.7925 11.1659 16.8269 11.125 16.8505C11.011 16.9163 10.9163 17.011 10.8505 17.125C10.8269 17.1659 10.7925 17.2476 10.7721 17.4727C10.7507 17.7082 10.75 18.0189 10.75 18.5V21.25ZM7.24991 9C7.24991 9.69036 7.80956 10.25 8.49991 10.25C9.19027 10.25 9.74991 9.69036 9.74991 9C9.74991 8.58579 10.0857 8.25 10.4999 8.25C10.9141 8.25 11.2499 8.58579 11.2499 9C11.2499 9.69036 11.8096 10.25 12.4999 10.25C13.1903 10.25 13.7499 9.69036 13.7499 9C13.7499 8.58579 14.0857 8.25 14.4999 8.25C14.9141 8.25 15.2499 8.58579 15.2499 9C15.2499 9.69036 15.8096 10.25 16.4999 10.25C17.1903 10.25 17.7499 9.69036 17.7499 9C17.7499 8.58579 18.0857 8.25 18.4999 8.25C18.9141 8.25 19.2499 8.58579 19.2499 9C19.2499 9.69036 19.8096 10.25 20.4999 10.25C20.8979 10.25 21.2522 10.0649 21.4823 9.77305C21.5962 9.62859 21.6513 9.43094 21.6202 9.12114C21.5879 8.79903 21.469 8.43275 21.3117 8.03518L19.9201 4.51739C19.6524 3.98204 19.4735 3.62749 19.3071 3.36612C19.1472 3.1147 19.0325 3.00562 18.921 2.93669C18.8095 2.86776 18.6606 2.81401 18.3642 2.78336C18.0505 2.75093 17.6446 2.75 17.0278 2.75H7.97214C7.35533 2.75 6.9494 2.75093 6.63569 2.78336C6.33927 2.81401 6.19044 2.86776 6.0789 2.93669C5.96737 3.00562 5.85274 3.1147 5.69276 3.36612C5.52646 3.62749 5.34755 3.98204 5.07983 4.51739L3.68823 8.03518C3.53095 8.43275 3.41202 8.79903 3.37967 9.12115C3.34856 9.43095 3.40366 9.62861 3.51759 9.77307C3.7477 10.0649 4.10196 10.25 4.49991 10.25C5.19027 10.25 5.74991 9.69036 5.74991 9C5.74991 8.58579 6.0857 8.25 6.49991 8.25C6.91413 8.25 7.24991 8.58579 7.24991 9Z"
        fill="#797979" />
</svg>