<svg width="17" height="16" viewBox="0 0 17 16" fill="none" xmlns="http://www.w3.org/2000/svg">
    <path
        d="M12.5502 3.358C11.8909 2.59144 11.5454 1.60104 11.573 0.592723L9.10913 0.533203C9.10913 0.533203 9.10913 0.638323 9.10913 0.780083V10.6602C9.14353 13.786 4.20497 13.7102 4.59569 10.2551C4.83457 8.88136 6.31073 8.03592 7.62241 8.51384V5.99992C4.76673 5.50264 2.06049 7.7756 2.08897 10.6713C2.33857 16.9513 11.3459 16.9521 11.5958 10.6713C11.533 10.4465 11.5682 6.26152 11.5592 5.90856C12.6795 6.60568 13.983 6.95416 15.3032 6.90952V4.3132C14.0827 4.3132 13.1514 3.98872 12.5502 3.358Z"
        fill="white" />
</svg>