<svg width="24" height="24" viewBox="0 0 24 24" fill="none" xmlns="http://www.w3.org/2000/svg">
    <path
        d="M11.6236 15.1698C11.4236 15.1698 11.2336 15.0898 11.0936 14.9498L8.67355 12.5298C8.38355 12.2398 8.38355 11.7598 8.67355 11.4698C8.96355 11.1798 9.44355 11.1798 9.73355 11.4698L11.6236 13.3598L15.9236 9.05979C16.2136 8.76979 16.6936 8.76979 16.9836 9.05979C17.2736 9.34979 17.2736 9.82978 16.9836 10.1198L12.1536 14.9498C12.0136 15.0898 11.8236 15.1698 11.6236 15.1698Z"
        fill="#797979" />
    <path
        d="M12.8334 22.75C12.2034 22.75 11.5734 22.54 11.0834 22.12L9.50338 20.76C9.34338 20.62 8.94338 20.48 8.73338 20.48H7.01338C5.53338 20.48 4.33338 19.28 4.33338 17.8V16.09C4.33338 15.88 4.19338 15.49 4.05338 15.33L2.70338 13.74C1.88338 12.77 1.88338 11.24 2.70338 10.27L4.05338 8.68C4.19338 8.52 4.33338 8.13 4.33338 7.92V6.2C4.33338 4.72 5.53338 3.52 7.01338 3.52H8.74338C8.95338 3.52 9.35338 3.37 9.51338 3.24L11.0934 1.88C12.0734 1.04 13.6034 1.04 14.5834 1.88L16.1634 3.24C16.3234 3.38 16.7234 3.52 16.9334 3.52H18.6334C20.1134 3.52 21.3134 4.72 21.3134 6.2V7.9C21.3134 8.11 21.4634 8.51 21.6034 8.67L22.9634 10.25C23.8034 11.23 23.8034 12.76 22.9634 13.74L21.6034 15.32C21.4634 15.48 21.3134 15.88 21.3134 16.09V17.79C21.3134 19.27 20.1134 20.47 18.6334 20.47H16.9334C16.7234 20.47 16.3234 20.62 16.1634 20.75L14.5834 22.11C14.0934 22.54 13.4634 22.75 12.8334 22.75ZM7.01338 5.02C6.36338 5.02 5.83338 5.55 5.83338 6.2V7.91C5.83338 8.48 5.56338 9.21 5.19338 9.64L3.84338 11.23C3.49338 11.64 3.49338 12.35 3.84338 12.76L5.19338 14.35C5.56338 14.79 5.83338 15.51 5.83338 16.08V17.79C5.83338 18.44 6.36338 18.97 7.01338 18.97H8.74338C9.32338 18.97 10.0534 19.24 10.4934 19.62L12.0734 20.98C12.4834 21.33 13.2034 21.33 13.6134 20.98L15.1934 19.62C15.6334 19.25 16.3634 18.97 16.9434 18.97H18.6434C19.2934 18.97 19.8234 18.44 19.8234 17.79V16.09C19.8234 15.51 20.0934 14.78 20.4734 14.34L21.8334 12.76C22.1834 12.35 22.1834 11.63 21.8334 11.22L20.4734 9.64C20.0934 9.2 19.8234 8.47 19.8234 7.89V6.2C19.8234 5.55 19.2934 5.02 18.6434 5.02H16.9434C16.3634 5.02 15.6334 4.75 15.1934 4.37L13.6134 3.01C13.2034 2.66 12.4834 2.66 12.0734 3.01L10.4934 4.38C10.0534 4.75 9.31338 5.02 8.74338 5.02H7.01338Z"
        fill="#797979" />
</svg>